HIERARCHY
ROOT Hips
{
	OFFSET 0.000000 89.005402 0.000000
	CHANNELS 6 Xposition Yposition Zposition Xrotation Yrotation Zrotation
	JOINT Spine
	{
		OFFSET 0.116900 10.681000 0.373400
		CHANNELS 3 Xrotation Yrotation Zrotation
		JOINT Spine1
		{
			OFFSET 0.000000 13.840401 0.053500
			CHANNELS 3 Xrotation Yrotation Zrotation
			JOINT Spine2
			{
				OFFSET 0.000000 14.712700 -0.366200
				CHANNELS 3 Xrotation Yrotation Zrotation
				JOINT Neck
				{
					OFFSET 0.000000 35.415497 -3.314200
					CHANNELS 3 Xrotation Yrotation Zrotation
					JOINT Head
					{
						OFFSET 0.000000 16.899200 1.218300
						CHANNELS 3 Xrotation Yrotation Zrotation
						JOINT HeadTop_End
						{
							OFFSET 0.000000 22.206207 2.192500
							CHANNELS 3 Xrotation Yrotation Zrotation
							End Site
							{
								OFFSET 0.000000 22.314178 0.000000
							}
						}
					}
				}
				JOINT LeftShoulder
				{
					OFFSET 12.896400 26.716293 -4.548400
					CHANNELS 3 Xrotation Yrotation Zrotation
					JOINT LeftArm
					{
						OFFSET 19.027000 -4.857010 -1.718400
						CHANNELS 3 Xrotation Yrotation Zrotation
						JOINT LeftForeArm
						{
							OFFSET 24.179897 0.000000 0.000000
							CHANNELS 3 Xrotation Yrotation Zrotation
							JOINT LeftHand
							{
								OFFSET 27.156403 0.000000 0.000000
								CHANNELS 3 Xrotation Yrotation Zrotation
								JOINT LeftHandIndex1
								{
									OFFSET 16.441200 0.000000 0.000000
									CHANNELS 3 Xrotation Yrotation Zrotation
									JOINT LeftHandIndex2
									{
										OFFSET 4.821899 0.000000 0.000000
										CHANNELS 3 Xrotation Yrotation Zrotation
										JOINT LeftHandIndex3
										{
											OFFSET 6.386497 0.000000 0.000000
											CHANNELS 3 Xrotation Yrotation Zrotation
											JOINT LeftHandIndex4
											{
												OFFSET 5.188988 0.000000 0.000000
												CHANNELS 3 Xrotation Yrotation Zrotation
												End Site
												{
													OFFSET -0.178703 5.185913 0.000177
												}
											}
										}
									}
								}
								JOINT LeftHandThumb1
								{
									OFFSET 6.534897 -5.032593 5.900300
									CHANNELS 3 Xrotation Yrotation Zrotation
									JOINT LeftHandThumb2
									{
										OFFSET 3.818176 -2.204422 2.204423
										CHANNELS 3 Xrotation Yrotation Zrotation
										JOINT LeftHandThumb3
										{
											OFFSET 3.252098 -1.877594 1.877601
											CHANNELS 3 Xrotation Yrotation Zrotation
											JOINT LeftHandThumb4
											{
												OFFSET 5.251778 -3.032120 3.032117
												CHANNELS 3 Xrotation Yrotation Zrotation
												End Site
												{
													OFFSET 0.000023 6.780014 0.000000
												}
											}
										}
									}
								}
							}
						}
					}
				}
				JOINT RightShoulder
				{
					OFFSET -12.896300 26.716293 -4.548400
					CHANNELS 3 Xrotation Yrotation Zrotation
					JOINT RightArm
					{
						OFFSET -19.027000 -4.857010 -1.718400
						CHANNELS 3 Xrotation Yrotation Zrotation
						JOINT RightForeArm
						{
							OFFSET -24.179897 0.000000 0.000000
							CHANNELS 3 Xrotation Yrotation Zrotation
							JOINT RightHand
							{
								OFFSET -27.156403 0.000000 0.000000
								CHANNELS 3 Xrotation Yrotation Zrotation
								JOINT RightHandThumb1
								{
									OFFSET -6.591202 -4.852203 5.988100
									CHANNELS 3 Xrotation Yrotation Zrotation
									JOINT RightHandThumb2
									{
										OFFSET -3.818176 -2.204422 2.204423
										CHANNELS 3 Xrotation Yrotation Zrotation
										JOINT RightHandThumb3
										{
											OFFSET -3.252098 -1.877594 1.877601
											CHANNELS 3 Xrotation Yrotation Zrotation
											JOINT RightHandThumb4
											{
												OFFSET -5.251778 -3.032120 3.032117
												CHANNELS 3 Xrotation Yrotation Zrotation
												End Site
												{
													OFFSET -0.000023 6.780014 0.000000
												}
											}
										}
									}
								}
								JOINT RightHandIndex1
								{
									OFFSET -16.029404 0.000000 0.000000
									CHANNELS 3 Xrotation Yrotation Zrotation
									JOINT RightHandIndex2
									{
										OFFSET -5.213303 0.000000 0.000000
										CHANNELS 3 Xrotation Yrotation Zrotation
										JOINT RightHandIndex3
										{
											OFFSET -6.386528 0.000000 0.000000
											CHANNELS 3 Xrotation Yrotation Zrotation
											JOINT RightHandIndex4
											{
												OFFSET -5.189026 0.000000 0.000000
												CHANNELS 3 Xrotation Yrotation Zrotation
												End Site
												{
													OFFSET 0.236702 5.183624 0.001972
												}
											}
										}
									}
								}
							}
						}
					}
				}
			}
		}
	}
	JOINT LeftUpLeg
	{
		OFFSET 14.073000 -7.904099 -1.463000
		CHANNELS 3 Xrotation Yrotation Zrotation
		JOINT LeftLeg
		{
			OFFSET -0.109806 -34.073280 4.093200
			CHANNELS 3 Xrotation Yrotation Zrotation
			JOINT LeftFoot
			{
				OFFSET 0.109806 -29.899420 -6.319000
				CHANNELS 3 Xrotation Yrotation Zrotation
				JOINT LeftToeBase
				{
					OFFSET 1.551100 -14.988700 20.535801
					CHANNELS 3 Xrotation Yrotation Zrotation
					JOINT LeftToe_End
					{
						OFFSET 0.221200 0.570800 13.248301
						CHANNELS 3 Xrotation Yrotation Zrotation
						End Site
						{
							OFFSET 0.000000 13.262435 0.000000
						}
					}
				}
			}
		}
	}
	JOINT RightUpLeg
	{
		OFFSET -13.839300 -7.904099 -1.463000
		CHANNELS 3 Xrotation Yrotation Zrotation
		JOINT RightLeg
		{
			OFFSET 0.109694 -34.073219 4.093300
			CHANNELS 3 Xrotation Yrotation Zrotation
			JOINT RightFoot
			{
				OFFSET -0.109694 -29.899384 -6.319200
				CHANNELS 3 Xrotation Yrotation Zrotation
				JOINT RightToeBase
				{
					OFFSET -1.551100 -14.988700 20.535801
					CHANNELS 3 Xrotation Yrotation Zrotation
					JOINT RightToe_End
					{
						OFFSET -0.221200 0.570900 13.248299
						CHANNELS 3 Xrotation Yrotation Zrotation
						End Site
						{
							OFFSET 0.000000 13.262440 0.000000
						}
					}
				}
			}
		}
	}
}
MOTION
Frames: 5
Frame Time: 0.033333
-4.443235 85.621902 3.340553 -7.582301 -13.759162 -1.829885 3.581635 -2.639974 0.844108 7.492918 -5.304320 0.776679 7.490160 -5.298228 0.875861 -4.251018 5.036937 -0.701379 -0.927213 23.775091 -2.447993 -0.000000 -0.000000 -0.000000 0.972588 1.013462 -9.532816 -6.997280 -54.405875 -46.328753 -0.000021 -43.483897 -0.000031 -47.401602 6.528918 0.611358 0.062607 0.928245 -7.715691 0.062074 0.924432 -7.683902 0.015537 0.463272 -3.841698 -0.000002 -0.000001 -0.000000 -1.562396 -5.555533 4.773096 3.135023 -1.241638 -0.018111 -1.045839 -3.082659 2.045574 -0.000000 -0.000000 0.000002 5.336220 16.396182 2.094425 12.868067 21.189050 41.153215 0.000223 83.117863 -0.000193 -2.397470 0.863223 -29.141801 -1.850540 -3.723423 -6.607922 5.140729 -14.154887 -0.610667 -1.013130 -2.615807 -2.392128 -0.000001 0.000001 0.000002 0.678893 -3.001524 25.483992 0.678890 -3.001545 25.484008 0.171687 -1.538632 12.733120 0.000000 0.000000 -0.000000 -19.295648 6.556268 12.966289 33.970752 7.928655 1.704710 0.521519 0.392991 -3.509990 -2.173912 0.117036 -3.137426 0.000000 0.000000 0.000000 -4.601916 -11.689953 3.093794 27.541548 -2.479248 -7.923937 -15.874017 -0.872208 2.932131 -0.060250 0.000007 -0.000002 -0.000000 -0.000000 0.000000 
-4.498867 85.782677 3.684781 -7.660825 -14.554411 -1.743464 3.517651 -2.714562 0.879921 7.415544 -5.469684 0.893569 7.419111 -5.451608 1.011776 -4.067171 5.137565 -0.586359 -0.474314 24.497898 -2.919255 -0.000001 0.000000 0.000000 0.974592 0.857489 -8.740458 -11.426672 -53.946057 -49.101144 -0.000006 -44.442426 -0.000001 -51.210993 4.902875 0.474903 0.062783 0.929485 -7.726093 0.062219 0.925536 -7.693111 0.015564 0.463816 -3.846303 0.000000 -0.000001 0.000000 -1.562057 -5.532349 4.776551 3.124150 -1.235777 -0.024676 -1.043639 -3.061719 2.047877 0.000000 0.000001 0.000001 5.386914 16.952511 2.766874 10.936648 23.493064 40.742676 0.000208 85.233589 -0.000256 -2.094734 0.030873 -29.203737 -1.853775 -4.032324 -6.655867 5.190276 -14.717405 -0.647895 -0.987457 -2.896306 -2.421863 -0.000001 -0.000001 0.000001 0.678881 -3.001533 25.484011 0.678881 -3.001538 25.484010 0.171698 -1.538636 12.733119 0.000000 -0.000003 -0.000000 -18.462497 6.078914 13.566784 28.382359 7.868360 1.580000 0.818381 0.478736 -4.079604 -0.021667 0.000003 -0.000004 -0.000000 -0.000000 -0.000001 -4.187374 -11.175051 2.970000 27.063663 -2.156590 -7.900534 -15.748372 -0.846496 2.909679 -0.060714 -0.000004 0.000000 -0.000000 0.000002 0.000000 
-4.508713 85.828621 4.093403 -7.615679 -15.531413 -1.785613 3.368876 -2.729256 1.034210 7.164463 -5.539218 1.039706 7.175431 -5.507728 1.169833 -3.712227 5.241652 -0.452055 0.303763 25.268912 -3.421294 -0.000000 0.000000 -0.000000 0.989300 0.677598 -8.125111 -14.942740 -53.058648 -51.213711 0.000000 -45.545327 -0.000004 -54.942465 4.078166 0.238533 0.062931 0.930713 -7.736408 0.062383 0.926623 -7.702215 0.015627 0.464358 -3.850853 -0.000001 0.000000 -0.000001 -1.561623 -5.501313 4.781175 3.110726 -1.228531 -0.032755 -1.040947 -3.035775 2.050759 0.000001 0.000002 -0.000001 5.346188 17.586470 4.216207 10.033669 25.384909 39.878671 -0.000068 87.472696 -0.000055 -2.107900 -1.418672 -28.817941 -1.856906 -4.308564 -6.698762 5.237824 -15.259829 -0.683420 -0.962862 -3.166797 -2.450431 -0.000003 0.000001 -0.000000 0.678896 -3.001527 25.484001 0.678876 -3.001524 25.484032 0.171695 -1.538636 12.733097 -0.000000 0.000002 -0.000001 -17.655134 5.347076 14.540959 22.635744 7.778021 1.182903 1.878994 0.489517 -4.880267 -0.007089 0.000001 -0.000004 0.000000 -0.000000 0.000000 -4.083795 -10.241857 2.839446 26.989977 -2.031406 -7.593978 -15.818459 -0.824559 2.852576 -0.062169 -0.000005 -0.000000 -0.000000 0.000000 0.000000 
-4.453218 85.845543 4.549839 -7.557487 -16.601039 -1.925641 3.188115 -2.719829 1.239031 6.842195 -5.558730 1.295629 6.859071 -5.514369 1.429312 -3.297492 5.388057 -0.427661 1.271498 26.080148 -3.928329 -0.000000 0.000000 0.000000 1.002158 0.586581 -7.976502 -17.481838 -51.971159 -52.569575 -0.000032 -46.693666 -0.000024 -58.799473 3.434218 0.060303 0.063095 0.931932 -7.746597 0.062520 0.927704 -7.711225 0.015649 0.464906 -3.855366 -0.000001 -0.000000 -0.000001 -1.561117 -5.464279 4.786687 3.095342 -1.220234 -0.042008 -1.037840 -3.006102 2.053996 -0.000001 0.000001 0.000002 5.223207 18.114362 5.989403 10.035313 27.122480 38.585135 0.112106 89.640291 -0.111343 -1.977943 -3.343557 -28.248624 -1.859946 -4.561184 -6.738004 5.284422 -15.794129 -0.718051 -0.938760 -3.433224 -2.478479 0.000001 -0.000002 0.000002 0.678870 -3.001532 25.484006 0.678889 -3.001542 25.484010 0.171693 -1.538647 12.733098 -0.000002 -0.000003 -0.000003 -16.810426 4.380438 15.703172 17.213252 7.620568 0.589900 3.229491 0.423310 -5.766452 -0.000009 0.000000 0.000002 -0.000000 0.000000 -0.000000 -4.011440 -9.392781 2.686296 26.982741 -1.712968 -7.220673 -15.916521 -0.797080 2.767975 -0.065403 0.000019 0.000000 -0.000000 -0.000002 0.000000 
-4.316432 85.910431 5.066584 -7.522657 -17.743390 -2.112616 3.027877 -2.694379 1.475187 6.568463 -5.534730 1.686110 6.590718 -5.476774 1.816165 -2.979815 5.579501 -0.537522 2.220861 26.927473 -4.610284 0.000000 -0.000000 0.000000 1.005374 0.574035 -8.034649 -19.139641 -50.911759 -53.437563 -0.000007 -48.118232 -0.000010 -64.434591 1.941446 0.155826 0.066598 0.957320 -7.959026 0.066007 0.953011 -7.922931 0.016518 0.477643 -3.961188 -0.000001 -0.000000 -0.000001 -1.560511 -5.423102 4.792835 3.096961 -1.167206 -0.039289 -1.034482 -2.973913 2.057548 0.000000 -0.000000 -0.000005 5.098664 18.424900 7.361998 10.439399 28.957550 37.371978 0.010605 91.418653 -0.010572 -1.552832 -5.172873 -27.997123 -1.862857 -4.791131 -6.773790 5.330106 -16.320097 -0.751823 -0.915156 -3.695491 -2.505951 0.000001 -0.000002 -0.000001 0.678889 -3.001530 25.483999 0.678901 -3.001546 25.484006 0.171681 -1.538631 12.733117 0.000000 -0.000002 0.000000 -15.656317 3.477991 16.692948 11.880449 7.480408 0.319557 4.685974 0.507038 -6.885775 -0.000005 -0.000000 0.000002 -0.000000 0.000000 -0.000000 -3.801920 -8.780362 2.427238 26.753346 -1.032954 -6.805371 -15.895220 -0.752915 2.649485 -0.070346 -0.000001 -0.000000 -0.000000 0.000001 -0.000000 
